<svg width="344" height="345" viewBox="0 0 344 345" fill="none" xmlns="http://www.w3.org/2000/svg">
<path d="M305.575 94.7301C305.575 94.7301 285.939 55.821 242.581 50.0526C199.223 44.2842 168.965 72.3879 137.056 86.802C120.344 94.3506 101.28 91.4181 83.5294 95.082C26.8313 106.75 5.44828 179.931 29.0742 221.552C49.5216 257.584 85.4902 276.317 140.324 280.637C195.157 284.956 233.582 290.007 282.671 254.7C331.76 219.392 328.478 145.894 305.575 94.7301Z" fill="#73A36B"/>
<path opacity="0.7" d="M305.575 94.7301C305.575 94.7301 285.939 55.821 242.581 50.0526C199.223 44.2842 168.965 72.3879 137.056 86.802C120.344 94.3506 101.28 91.4181 83.5294 95.082C26.8313 106.75 5.44828 179.931 29.0742 221.552C49.5216 257.584 85.4902 276.317 140.324 280.637C195.157 284.956 233.582 290.007 282.671 254.7C331.76 219.392 328.478 145.894 305.575 94.7301Z" fill="white"/>
<path d="M288.272 291.063C288.272 291.063 267.233 258.874 270.384 251.491C273.535 244.108 284.584 256.763 284.584 256.763C284.584 256.763 268.32 213.5 279.328 204.005C290.336 194.511 294.058 243.046 294.058 243.046C294.058 243.046 304.048 215.087 311.946 225.637C319.844 236.187 299.851 258.35 299.851 258.35C299.851 258.35 313.529 258.874 309.841 267.844C306.153 276.814 296.164 286.309 296.164 286.309L288.272 291.063Z" fill="#73A36B"/>
<path d="M282.486 283.673C282.486 283.673 269.862 265.733 276.177 262.041C282.493 258.35 285.644 269.431 285.644 269.431C285.644 269.431 286.174 220.89 296.164 224.581C306.154 228.273 302.48 257.819 302.48 257.819C302.48 257.819 315.104 249.38 314.581 261.51C314.059 273.64 297.216 284.204 297.216 284.204" stroke="#263238" stroke-linecap="round" stroke-linejoin="round"/>
<path d="M294.065 284.728L283.016 272.591" stroke="#263238" stroke-linecap="round" stroke-linejoin="round"/>
<path d="M294.587 290.531L294.064 260.461" stroke="#263238" stroke-linecap="round" stroke-linejoin="round"/>
<path d="M295.111 280.506L305.108 267.32" stroke="#263238" stroke-linecap="round" stroke-linejoin="round"/>
<path d="M304.055 281.561H276.178L278.964 306.36H301.269L304.055 281.561Z" fill="#263238" stroke="#263238" stroke-linecap="round" stroke-linejoin="round"/>
<path d="M262.259 35.459H129.812C126.898 35.459 124.535 37.8284 124.535 40.7513V301.068C124.535 303.99 126.898 306.36 129.812 306.36H262.259C265.173 306.36 267.536 303.99 267.536 301.068V40.7513C267.536 37.8284 265.173 35.459 262.259 35.459Z" fill="white" stroke="#263238" stroke-linecap="round" stroke-linejoin="round"/>
<path d="M210.198 50.4112H181.873C181.36 50.4112 180.868 50.207 180.506 49.8434C180.143 49.4797 179.939 48.9866 179.939 48.4723C179.939 47.9581 180.143 47.465 180.506 47.1013C180.868 46.7377 181.36 46.5334 181.873 46.5334H210.198C210.71 46.5334 211.202 46.7377 211.565 47.1013C211.927 47.465 212.131 47.9581 212.131 48.4723C212.131 48.727 212.081 48.9791 211.984 49.2143C211.887 49.4496 211.744 49.6633 211.565 49.8434C211.385 50.0234 211.172 50.1662 210.938 50.2637C210.703 50.3611 210.452 50.4112 210.198 50.4112Z" fill="#263238"/>
<path d="M203.759 288.551C203.759 287.018 203.306 285.52 202.457 284.246C201.608 282.972 200.401 281.979 198.99 281.392C197.578 280.806 196.024 280.652 194.526 280.951C193.027 281.25 191.65 281.988 190.57 283.072C189.489 284.155 188.753 285.536 188.455 287.039C188.157 288.542 188.31 290.1 188.895 291.516C189.48 292.932 190.47 294.142 191.74 294.994C193.011 295.845 194.505 296.3 196.033 296.3C198.082 296.3 200.047 295.483 201.496 294.03C202.945 292.577 203.759 290.606 203.759 288.551Z" fill="white" stroke="#263238" stroke-width="0.704333" stroke-linecap="round" stroke-linejoin="round"/>
<path d="M199.947 284.625H192.117V292.477H199.947V284.625Z" fill="#263238"/>
<path d="M261.179 65.2048H130.893V276.614H261.179V65.2048Z" fill="#73A36B" stroke="#263238" stroke-linecap="round" stroke-linejoin="round"/>
<path d="M261.179 65.2048H130.893V78.7702H261.179V65.2048Z" fill="#263238" stroke="#263238" stroke-linecap="round" stroke-linejoin="round"/>
<path d="M189.861 82.103H204.474" stroke="#263238" stroke-linecap="round" stroke-linejoin="round"/>
<path d="M180.613 84.7939H215.509" stroke="#263238" stroke-linecap="round" stroke-linejoin="round"/>
<path d="M151.972 105.48C151.841 105.48 151.712 105.446 151.598 105.382C151.483 105.318 151.387 105.225 151.318 105.113C151.249 105.001 151.21 104.874 151.204 104.742C151.198 104.611 151.226 104.48 151.284 104.362L162.588 81.4889C162.651 81.3595 162.748 81.2507 162.87 81.175C162.992 81.0992 163.133 81.0597 163.276 81.0611C163.421 81.064 163.562 81.1076 163.684 81.1869C163.805 81.2661 163.902 81.3779 163.964 81.5096L174.284 103.983C174.348 104.075 174.39 104.18 174.409 104.291C174.428 104.401 174.423 104.515 174.393 104.623C174.364 104.731 174.312 104.832 174.24 104.918C174.168 105.004 174.079 105.073 173.977 105.121C173.876 105.169 173.766 105.194 173.654 105.194C173.542 105.195 173.431 105.171 173.33 105.125C173.228 105.078 173.138 105.01 173.065 104.925C172.992 104.839 172.938 104.739 172.908 104.631L163.276 83.6279L152.695 105.018C152.633 105.157 152.531 105.276 152.403 105.358C152.274 105.44 152.125 105.483 151.972 105.48Z" fill="#263238"/>
<path d="M148.801 102.52H176.761L183.786 125.89C184.131 127.029 184.204 128.233 184 129.405C183.795 130.577 183.319 131.685 182.609 132.639C181.904 133.599 180.984 134.379 179.923 134.916C178.861 135.453 177.689 135.732 176.5 135.73H149.902C148.701 135.729 147.517 135.443 146.447 134.897C145.377 134.35 144.451 133.557 143.744 132.583L143.441 132.162C142.762 131.226 142.304 130.146 142.103 129.006C141.902 127.865 141.962 126.694 142.279 125.58L148.801 102.52Z" fill="white" stroke="#263238" stroke-linecap="round" stroke-linejoin="round"/>
<path d="M205.34 105.701H252.929V130.41C252.929 131.823 252.369 133.177 251.373 134.176C250.377 135.175 249.026 135.737 247.617 135.737H210.651C209.243 135.737 207.892 135.175 206.896 134.176C205.899 133.177 205.34 131.823 205.34 130.41V105.708V105.701Z" fill="white" stroke="#263238" stroke-linecap="round" stroke-linejoin="round"/>
<path d="M205.34 105.701L210.479 119.128C210.893 120.209 211.623 121.138 212.573 121.793C213.524 122.448 214.651 122.799 215.804 122.799H242.925C244.109 122.799 245.264 122.43 246.229 121.743C247.194 121.055 247.922 120.084 248.312 118.963L252.929 105.701" stroke="#263238" stroke-linecap="round" stroke-linejoin="round"/>
<path d="M235.275 120.412H224.77V124.987H235.275V120.412Z" fill="white" stroke="#263238" stroke-linecap="round" stroke-linejoin="round"/>
<path d="M221.398 105.501L202.561 125.187L203.751 126.981L224.177 105.894L221.398 105.501Z" fill="white" stroke="#263238" stroke-linecap="round" stroke-linejoin="round"/>
<path d="M171.037 140.491H154.292C152.392 140.491 150.852 142.035 150.852 143.941V144.769C150.852 146.674 152.392 148.219 154.292 148.219H171.037C172.937 148.219 174.477 146.674 174.477 144.769V143.941C174.477 142.035 172.937 140.491 171.037 140.491Z" fill="#263238"/>
<path d="M236.459 140.491H219.713C217.814 140.491 216.273 142.035 216.273 143.941V144.769C216.273 146.674 217.814 148.219 219.713 148.219H236.459C238.359 148.219 239.899 146.674 239.899 144.769V143.941C239.899 142.035 238.359 140.491 236.459 140.491Z" fill="#263238"/>
<path d="M176.63 171.858C176.457 171.857 176.29 171.798 176.154 171.691C176.018 171.583 175.922 171.433 175.88 171.265C175.88 171.134 172.771 158.7 163.434 159.328C153.706 159.976 150.239 170.754 150.204 170.865C150.142 171.061 150.006 171.225 149.824 171.32C149.642 171.416 149.43 171.436 149.234 171.375C149.138 171.345 149.048 171.297 148.97 171.232C148.893 171.167 148.829 171.087 148.782 170.997C148.735 170.908 148.707 170.809 148.698 170.708C148.689 170.607 148.701 170.506 148.732 170.409C148.732 170.285 152.536 158.507 163.331 157.789C173.947 157.099 177.346 170.768 177.38 170.899C177.424 171.095 177.389 171.3 177.284 171.47C177.178 171.64 177.01 171.762 176.816 171.81C176.757 171.837 176.695 171.854 176.63 171.858Z" fill="#263238"/>
<path d="M148.444 168.898C148.444 168.898 158.764 172.272 177.196 168.898L180.759 190.73C180.885 191.499 180.859 192.285 180.682 193.044C180.505 193.803 180.181 194.52 179.727 195.153L179.356 195.663C178.807 196.429 178.083 197.052 177.246 197.48C176.408 197.909 175.48 198.13 174.54 198.127H151.148C150.035 198.127 148.944 197.812 148.002 197.217C147.06 196.623 146.304 195.773 145.823 194.766C145.32 193.716 145.136 192.54 145.293 191.385L148.444 168.898Z" fill="white" stroke="#263238" stroke-linecap="round" stroke-linejoin="round"/>
<path d="M177.195 168.898C177.195 168.898 176.816 184.23 163.511 184.23C150.205 184.23 148.443 168.919 148.443 168.919" stroke="#263238" stroke-linecap="round" stroke-linejoin="round"/>
<path d="M166.882 181.028H159.74V187.19H166.882V181.028Z" stroke="#263238" stroke-linecap="round" stroke-linejoin="round"/>
<path d="M216.671 167.877C216.541 167.875 216.413 167.84 216.299 167.775C216.186 167.71 216.091 167.618 216.022 167.507C215.954 167.395 215.914 167.269 215.907 167.138C215.901 167.007 215.927 166.877 215.983 166.759L227.287 150.033C227.348 149.903 227.446 149.793 227.568 149.717C227.69 149.641 227.831 149.603 227.975 149.606C228.12 149.609 228.261 149.652 228.383 149.731C228.504 149.811 228.601 149.922 228.663 150.054L238.983 166.386C239.067 166.572 239.075 166.784 239.004 166.975C238.933 167.167 238.789 167.322 238.605 167.408C238.418 167.492 238.206 167.5 238.014 167.429C237.823 167.358 237.666 167.214 237.58 167.028L227.948 152.172L217.359 167.449C217.295 167.577 217.197 167.685 217.076 167.761C216.954 167.836 216.814 167.877 216.671 167.877Z" fill="#263238"/>
<path d="M213.5 164.91H241.487L248.519 188.287C248.86 189.426 248.931 190.629 248.727 191.801C248.523 192.972 248.049 194.08 247.342 195.035C246.634 195.992 245.711 196.77 244.649 197.306C243.587 197.841 242.415 198.12 241.226 198.12H214.6C213.4 198.12 212.216 197.836 211.146 197.29C210.076 196.745 209.15 195.953 208.443 194.98L208.14 194.559C207.462 193.624 207.005 192.548 206.802 191.41C206.6 190.272 206.657 189.103 206.97 187.99L213.5 164.91Z" fill="white" stroke="#263238" stroke-linecap="round" stroke-linejoin="round"/>
<path d="M210.686 174.86L208.773 181.622H246.476L244.446 174.86H210.686Z" fill="#263238"/>
<path d="M206.971 187.997C206.692 188.991 206.617 190.03 206.749 191.054C206.881 192.077 207.219 193.063 207.742 193.952H247.969C248.865 192.204 249.05 190.176 248.485 188.294L248.148 187.19H207.198L206.971 187.997Z" fill="#263238"/>
<path d="M213.5 164.917L212.262 169.291H242.775L241.454 164.917H213.5Z" fill="#263238"/>
<path d="M171.037 201.583H154.292C152.392 201.583 150.852 203.128 150.852 205.033V205.862C150.852 207.767 152.392 209.312 154.292 209.312H171.037C172.937 209.312 174.477 207.767 174.477 205.862V205.033C174.477 203.128 172.937 201.583 171.037 201.583Z" fill="#263238"/>
<path d="M236.459 201.583H219.713C217.814 201.583 216.273 203.128 216.273 205.033V205.862C216.273 207.767 217.814 209.312 219.713 209.312H236.459C238.359 209.312 239.899 207.767 239.899 205.862V205.033C239.899 203.128 238.359 201.583 236.459 201.583Z" fill="#263238"/>
<path d="M153.327 234.358C153.226 234.358 153.126 234.338 153.032 234.3C152.939 234.261 152.854 234.204 152.782 234.132C152.711 234.06 152.654 233.975 152.615 233.881C152.577 233.788 152.557 233.687 152.557 233.586V226.527C152.56 223.92 153.596 221.422 155.435 219.581C157.275 217.74 159.769 216.706 162.368 216.708H162.567C165.16 216.716 167.645 217.753 169.477 219.593C171.309 221.433 172.34 223.926 172.344 226.527V233.22C172.344 233.425 172.262 233.621 172.118 233.766C171.973 233.911 171.777 233.993 171.573 233.993C171.369 233.993 171.173 233.911 171.028 233.766C170.884 233.621 170.802 233.425 170.802 233.22V226.527C170.802 224.331 169.933 222.225 168.384 220.672C166.836 219.119 164.736 218.247 162.546 218.247H162.368C160.178 218.247 158.078 219.119 156.53 220.672C154.981 222.225 154.112 224.331 154.112 226.527V233.586C154.112 233.688 154.091 233.79 154.052 233.885C154.012 233.979 153.954 234.065 153.881 234.137C153.808 234.209 153.721 234.266 153.626 234.304C153.531 234.342 153.43 234.36 153.327 234.358Z" fill="#263238"/>
<path d="M147.419 230.632C147.419 230.632 156.501 233.392 178.179 230.632L181.998 253.989C182.132 254.811 182.104 255.652 181.914 256.463C181.723 257.274 181.376 258.039 180.89 258.715L180.498 259.267C179.912 260.083 179.141 260.748 178.249 261.206C177.356 261.664 176.368 261.903 175.366 261.903H150.336C149.146 261.902 147.98 261.564 146.972 260.928C145.964 260.292 145.156 259.384 144.639 258.308C144.105 257.184 143.909 255.927 144.075 254.693L147.419 230.632Z" fill="white" stroke="#263238" stroke-linecap="round" stroke-linejoin="round"/>
<path d="M153.129 257.653C153.129 255.491 152.274 253.418 150.75 251.888C149.226 250.359 147.16 249.499 145.004 249.497H144.798L144.075 254.686C143.909 255.92 144.105 257.177 144.639 258.301C145.156 259.377 145.964 260.285 146.972 260.921C147.98 261.557 149.146 261.895 150.336 261.896H151.925C152.713 260.622 153.13 259.152 153.129 257.653Z" fill="#263238"/>
<path d="M172.564 257.653C172.563 259.155 172.98 260.627 173.768 261.903H175.365C176.367 261.903 177.355 261.665 178.248 261.206C179.14 260.748 179.911 260.083 180.497 259.267L180.889 258.715C181.375 258.039 181.722 257.274 181.913 256.463C182.103 255.652 182.131 254.811 181.997 253.989L181.268 249.525C181.075 249.525 180.889 249.525 180.69 249.525C178.539 249.526 176.476 250.383 174.954 251.906C173.431 253.429 172.572 255.496 172.564 257.653Z" fill="#263238"/>
<path d="M162.252 231.999V262.027" stroke="#263238" stroke-linecap="round" stroke-linejoin="round"/>
<path d="M247.592 236.767H207.901C206.924 236.767 206.133 237.561 206.133 238.54V260.247C206.133 261.227 206.924 262.021 207.901 262.021H247.592C248.568 262.021 249.36 261.227 249.36 260.247V238.54C249.36 237.561 248.568 236.767 247.592 236.767Z" fill="white" stroke="#263238" stroke-linecap="round" stroke-linejoin="round"/>
<path d="M206.332 237.96L225.63 252.45C226.178 252.87 226.847 253.097 227.536 253.097C228.225 253.097 228.895 252.87 229.442 252.45L248.568 237.615" stroke="#263238" stroke-linecap="round" stroke-linejoin="round"/>
<path d="M225.168 236.967H229.53V254.907C229.53 255.424 229.325 255.921 228.96 256.287C228.594 256.654 228.099 256.859 227.583 256.859H227.115C226.599 256.859 226.103 256.654 225.738 256.287C225.373 255.921 225.168 255.424 225.168 254.907V236.967Z" fill="white" stroke="#263238" stroke-linecap="round" stroke-linejoin="round"/>
<path d="M171.037 265.464H154.292C152.392 265.464 150.852 267.008 150.852 268.914V269.742C150.852 271.647 152.392 273.192 154.292 273.192H171.037C172.937 273.192 174.477 271.647 174.477 269.742V268.914C174.477 267.008 172.937 265.464 171.037 265.464Z" fill="#263238"/>
<path d="M236.459 265.464H219.713C217.814 265.464 216.273 267.008 216.273 268.914V269.742C216.273 271.647 217.814 273.192 219.713 273.192H236.459C238.359 273.192 239.899 271.647 239.899 269.742V268.914C239.899 267.008 238.359 265.464 236.459 265.464Z" fill="#263238"/>
<path d="M57.3735 181.47C57.3735 181.47 52.7501 189.584 51.4017 205.813C50.0532 222.042 58.9146 237.684 63.7306 245.412C68.5466 253.14 62.5748 260.089 61.8042 264.732C61.0337 269.376 61.4189 277.642 66.0492 283.245C70.6794 288.848 71.8284 298.508 71.6357 301.785C71.4431 305.063 72.021 305.842 73.0117 305.842C74.0025 305.842 91.4983 307.002 94.3879 305.842L99.0113 305.456C99.0113 305.456 99.7818 303.717 98.2407 302.944C96.6996 302.172 92.0487 300.626 90.5351 297.735C89.0215 294.844 88.7532 289.8 89.3449 287.495C89.9365 285.191 93.5829 273.585 94.3535 266.437C95.1241 259.288 95.5094 246.737 95.5094 243.839C95.5094 240.941 102.637 231.861 103.6 221.069C104.563 210.277 100.903 188.37 100.903 188.37L57.3735 181.47Z" fill="white" stroke="#263238" stroke-linecap="round" stroke-linejoin="round"/>
<path d="M98.2046 302.944C96.6635 302.172 92.0126 300.626 90.499 297.735C90.0694 296.882 89.7481 295.977 89.5427 295.044C88.8547 295.113 86.5086 295.444 85.683 296.769C85.0267 297.742 84.0838 298.485 82.986 298.894L78.748 298.508C78.748 298.508 78.5553 302.558 79.3259 304.49C79.546 305.028 78.6379 305.263 79.3878 305.87C84.7886 306.07 94.5238 306.519 96.98 306.029L98.9752 305.477C98.9752 305.477 99.7595 303.717 98.2046 302.944Z" fill="#73A36B" stroke="#263238" stroke-linecap="round" stroke-linejoin="round"/>
<path d="M91.6564 303.524C88.5742 302.558 84.3361 299.281 83.1803 297.928C82.5329 297.149 81.7496 296.494 80.8686 295.996C80.8686 295.996 78.3643 295.03 77.5937 296.962L76.8232 298.894L71.498 298.446C71.6206 299.554 71.6643 300.67 71.6288 301.785C71.4361 305.07 72.014 305.842 73.0048 305.842C73.8579 305.842 87.8862 306.767 92.9568 306.146C93.1769 305.049 93.0118 303.952 91.6564 303.524Z" fill="#73A36B" stroke="#263238" stroke-linecap="round" stroke-linejoin="round"/>
<path d="M89.3449 287.495C89.9228 285.177 93.5829 273.585 94.3535 266.437C95.1241 259.288 95.5094 246.737 95.5094 243.839C95.5094 240.941 102.637 231.861 103.6 221.069C104.563 210.277 100.903 188.37 100.903 188.37L57.3735 181.47C57.3735 181.47 52.7501 189.584 51.4017 205.813C50.0532 222.042 58.9146 237.684 63.7306 245.412C68.5466 253.14 62.5748 260.089 61.8042 264.732C61.0337 269.376 61.4189 277.642 66.0492 283.245C67.5344 285.13 68.6969 287.25 69.4892 289.517C71.5532 290.49 74.8969 290.897 79.9193 288.075C79.9193 288.075 83.4762 290.897 89.1178 289.096C89.1508 288.557 89.2267 288.022 89.3449 287.495Z" fill="#263238" stroke="#263238" stroke-linecap="round" stroke-linejoin="round"/>
<path d="M89.7303 212.52L84.529 215.411C84.529 215.411 83.7585 241.493 83.7585 250.767C83.7585 260.04 81.2542 262.766 80.4974 275.517C79.7406 288.268 80.8826 295.996 80.8826 295.996" stroke="#7D7D7D" stroke-linecap="round" stroke-linejoin="round"/>
<path d="M99.6361 138.952C99.6361 138.952 106.262 141.222 108.69 147.384C111.119 153.546 111.759 165.055 111.759 170.892C111.759 176.73 113.699 181.587 111.112 185.32C108.525 189.053 103.351 188.563 100.93 185.155C98.5078 181.746 98.8243 179.635 99.7944 172.045C100.764 164.455 100.441 149.833 99.6361 146.915C98.8312 143.996 95.9141 138.807 95.9141 138.807C95.9141 138.807 98.1776 138 99.6361 138.952Z" fill="#73A36B" stroke="#263238" stroke-linecap="round" stroke-linejoin="round"/>
<path d="M112.062 175.439C111.846 175.218 111.616 175.011 111.374 174.818C110.139 173.753 108.658 173.015 107.065 172.673C105.472 172.331 103.819 172.394 102.258 172.859L99.265 176.309C98.8041 180.635 99.0173 182.519 100.916 185.175C103.338 188.584 108.484 189.067 111.099 185.341C112.998 182.608 112.482 179.289 112.062 175.439Z" fill="white" stroke="#263238" stroke-linecap="round" stroke-linejoin="round"/>
<path d="M100.283 180.131C100.283 180.131 101.411 175.267 103.84 174.453C106.269 173.639 110.954 175.916 112.571 178.834C114.188 181.753 110.954 185.969 110.954 185.969C110.954 185.969 113.864 185.32 114.188 179.317C114.511 173.314 107.72 171.037 104.487 170.892C101.253 170.747 99.4712 177.861 100.283 180.131Z" fill="white" stroke="#263238" stroke-linecap="round" stroke-linejoin="round"/>
<path d="M103.353 150.786C104.485 155.998 105.028 161.321 104.969 166.656C104.811 172.493 101.736 176.543 101.578 179.621C101.419 182.698 102.871 188.218 102.382 189.025C101.894 189.833 93.6587 194.545 82.8227 193.407C71.9867 192.268 59.2243 189.37 57.1052 185.644C54.9862 181.918 59.2105 155.809 59.3687 152.89C59.527 149.971 62.1207 137.02 67.1294 135.385C72.138 133.749 83.9372 133.922 83.9372 133.922C83.9372 133.922 96.8647 137.814 97.3532 137.979C97.8417 138.145 95.2479 137.006 98.8049 138.628C102.362 140.249 103.009 145.272 103.174 146.087" fill="#73A36B"/>
<path d="M103.353 150.786C104.485 155.998 105.028 161.321 104.969 166.656C104.811 172.493 101.736 176.543 101.578 179.621C101.419 182.698 102.871 188.218 102.382 189.025C101.894 189.833 93.6587 194.545 82.8227 193.407C71.9867 192.268 59.2243 189.37 57.1052 185.644C54.9862 181.918 59.2105 155.809 59.3687 152.89C59.527 149.971 62.1207 137.02 67.1294 135.385C72.138 133.749 83.9372 133.922 83.9372 133.922C83.9372 133.922 96.8647 137.814 97.3532 137.979C97.8417 138.145 95.2479 137.006 98.8049 138.628C102.362 140.249 103.009 145.272 103.174 146.087" stroke="#263238" stroke-linecap="round" stroke-linejoin="round"/>
<path d="M80.8823 130.679C80.8823 130.679 77.002 133.115 77.002 134.736C77.002 136.358 78.7839 151.11 78.7839 151.11L90.4248 146.28L99.6372 151.628C99.6372 151.628 97.697 142.83 95.9151 138.787C95.1301 136.865 93.9461 135.132 92.442 133.705C90.9378 132.277 89.1479 131.187 87.1912 130.507C83.3109 129.223 80.8823 130.679 80.8823 130.679Z" fill="white" stroke="#263238" stroke-linecap="round" stroke-linejoin="round"/>
<path d="M81.0463 131.79C81.0463 131.79 82.3397 138.918 83.6331 142.14C85.2499 146.19 88.4835 153.649 88.4835 153.649C88.4835 153.649 91.7171 148.46 92.6872 144.086C93.6573 139.711 94.6205 132.57 94.6205 132.57C94.6205 132.57 83.7914 129.492 83.3098 129.168C82.8282 128.844 80.3995 130.196 81.0463 131.79Z" fill="white" stroke="#263238" stroke-linecap="round" stroke-linejoin="round"/>
<path d="M111.278 100.202C111.278 100.202 102.548 90.7971 94.7664 91.6113C86.9851 92.4255 78.2544 103.928 74.2365 110.931C70.2186 117.935 75.8533 131.355 83.9373 133.95C92.0213 136.544 95.8947 134.923 95.8947 134.923C95.8947 134.923 101.715 139.304 107.212 136.061C112.709 132.818 112.875 128.112 112.386 124.062C111.898 120.012 116.59 119.363 118.207 114.333C119.823 109.303 111.278 100.202 111.278 100.202Z" fill="#263238" stroke="#263238" stroke-linecap="round" stroke-linejoin="round"/>
<path d="M106.103 109.282C106.103 109.282 105.456 111.387 107.72 115.927C109.983 120.467 110.307 123.062 109.983 125.98C109.66 128.899 107.555 131.79 105.264 133.922C102.973 136.054 99.7597 137.655 96.6981 137.165C93.6365 136.675 91.0427 132.142 91.0427 131.493C91.0427 130.845 87.5133 114.471 106.103 109.282Z" fill="white" stroke="#263238" stroke-linecap="round" stroke-linejoin="round"/>
<path d="M107.073 121.281L105.952 122.737C105.952 122.737 105.147 127.277 104.658 127.277C103.836 127.123 103.026 126.906 102.236 126.629" stroke="#263238" stroke-linecap="round" stroke-linejoin="round"/>
<path d="M100.606 130.03C100.606 130.03 97.6959 129.872 98.0192 127.602" stroke="#263238" stroke-linecap="round" stroke-linejoin="round"/>
<path d="M101.824 120.915C101.439 121.771 100.765 122.295 100.317 122.102C99.8701 121.909 99.8151 121.04 100.2 120.184C100.586 119.328 101.253 118.804 101.707 118.997C102.161 119.19 102.202 120.06 101.824 120.915Z" fill="#263238"/>
<path d="M108.773 123.186C108.388 124.041 107.714 124.566 107.267 124.373C106.819 124.179 106.764 123.31 107.15 122.454C107.535 121.599 108.209 121.074 108.656 121.268C109.104 121.461 109.159 122.323 108.773 123.186Z" fill="#263238"/>
<path d="M99.6367 116.9C99.6367 116.9 102.058 115.278 104.322 117.065" stroke="#263238" stroke-linecap="round" stroke-linejoin="round"/>
<path d="M107.721 119.818C108.045 119.637 108.427 119.586 108.788 119.677C109.148 119.768 109.461 119.994 109.661 120.308" stroke="#263238" stroke-linecap="round" stroke-linejoin="round"/>
<path d="M73.066 134.819C73.066 134.819 63.9087 135.061 58.7349 136.841C53.5612 138.621 52.1095 147.708 52.1095 152.242C52.1095 156.775 50.6509 184.023 51.6004 185.969C52.5498 187.915 86.1999 172.859 86.1999 172.859C86.1999 172.859 86.8466 173.507 88.6217 173.507C89.6984 173.504 90.7567 173.226 91.697 172.7L91.3737 174.805C91.3737 174.805 88.6217 175.943 89.7569 176.75C90.8921 177.558 95.0889 175.943 95.5705 175.619C96.0521 175.294 100.421 173.997 101.233 172.7C102.045 171.403 100.586 167.836 100.586 167.836C101.867 168.52 103.108 169.278 104.301 170.106C105.595 171.079 106.73 171.893 107.377 170.106C108.023 168.319 103.496 166.538 101.873 165.565C100.322 164.46 98.4292 163.944 96.5337 164.11C94.1119 164.268 83.1177 168.16 83.1177 168.16C83.1177 168.16 82.4985 168.305 78.3017 168.65C74.1049 168.995 64.5417 169.298 64.5417 169.298L68.7453 151.462" fill="white"/>
<path d="M73.066 134.819C73.066 134.819 63.9087 135.061 58.7349 136.841C53.5612 138.621 52.1095 147.708 52.1095 152.242C52.1095 156.775 50.6509 184.023 51.6004 185.969C52.5498 187.915 86.1999 172.859 86.1999 172.859C86.1999 172.859 86.8466 173.507 88.6217 173.507C89.6984 173.504 90.7567 173.226 91.697 172.7L91.3737 174.805C91.3737 174.805 88.6217 175.943 89.7569 176.75C90.8921 177.558 95.0889 175.943 95.5705 175.619C96.0521 175.294 100.421 173.997 101.233 172.7C102.045 171.403 100.586 167.836 100.586 167.836C101.867 168.52 103.108 169.278 104.301 170.106C105.595 171.079 106.73 171.893 107.377 170.106C108.023 168.319 103.496 166.538 101.873 165.565C100.322 164.46 98.4292 163.944 96.5337 164.11C94.1119 164.268 83.1177 168.16 83.1177 168.16C83.1177 168.16 82.4985 168.305 78.3017 168.65C74.1049 168.995 64.5417 169.298 64.5417 169.298L68.7453 151.462" stroke="#263238" stroke-linecap="round" stroke-linejoin="round"/>
<path d="M80.3732 168.256C80.3732 168.256 79.4788 172.396 81.9418 174.556L84.0746 173.866C84.0746 173.866 82.1 170.52 83.1458 168.118C83.2903 167.801 81.185 167.67 80.3732 168.256Z" fill="#263238"/>
<path d="M81.3836 172.307C82.3753 172.307 83.1793 171.525 83.1793 170.561C83.1793 169.597 82.3753 168.815 81.3836 168.815C80.3918 168.815 79.5879 169.597 79.5879 170.561C79.5879 171.525 80.3918 172.307 81.3836 172.307Z" fill="white" stroke="#263238" stroke-linecap="round" stroke-linejoin="round"/>
<path d="M94.4629 169.595C94.4629 169.595 97.0498 174.425 95.5912 175.591" stroke="#263238" stroke-linecap="round" stroke-linejoin="round"/>
<path d="M97.373 167.808C97.373 167.808 100.283 171.216 98.8247 173.804" stroke="#263238" stroke-linecap="round" stroke-linejoin="round"/>
<path d="M73.0651 134.819C70.1961 134.978 61.9539 135.73 58.734 136.841C53.5603 138.628 52.1086 147.708 52.1086 152.242C52.1086 156.085 51.0628 176.185 51.3311 183.45C54.379 173.017 64.5545 169.271 64.5545 169.271L69.5287 149.64" fill="#73A36B"/>
<path d="M73.0651 134.819C70.1961 134.978 61.9539 135.73 58.734 136.841C53.5603 138.628 52.1086 147.708 52.1086 152.242C52.1086 156.085 51.0628 176.185 51.3311 183.45C54.379 173.017 64.5545 169.271 64.5545 169.271L69.5287 149.64" stroke="#263238" stroke-linecap="round" stroke-linejoin="round"/>
<path d="M64.5555 169.271C64.5555 169.271 59.0515 173.97 57.2833 179.483C55.5151 184.996 56.3132 185.003 56.3132 185.003C56.1889 185.55 55.9317 186.058 55.5644 186.482C55.1971 186.906 54.7312 187.232 54.2079 187.431C52.4329 188.08 49.0342 186.3 48.7039 184.03C48.3737 181.76 49.3507 179.814 53.3961 174.301C57.4415 168.788 62.6084 167.808 64.5555 169.271Z" fill="white" stroke="#263238" stroke-linecap="round" stroke-linejoin="round"/>
<path d="M113.052 167.159L104.486 179.966L113.052 180.614L122.753 167.808L113.052 167.159Z" fill="#263238" stroke="#263238" stroke-linecap="round" stroke-linejoin="round"/>
<path d="M106.908 179.966C106.908 179.966 104.322 180.939 106.427 182.56C108.532 184.182 111.931 183.533 113.052 181.429C114.174 179.324 106.908 179.966 106.908 179.966Z" fill="white" stroke="#263238" stroke-linecap="round" stroke-linejoin="round"/>
<path d="M113.699 179.966C113.699 179.966 107.878 178.186 106.908 179.966C105.938 181.746 112.082 182.401 113.54 182.401C114.999 182.401 114.51 180.29 113.699 179.966Z" fill="white" stroke="#263238" stroke-linecap="round" stroke-linejoin="round"/>
<path d="M115.962 178.51C115.962 178.51 110.142 176.723 109.172 178.51C108.202 180.297 114.345 180.939 115.804 180.939C117.263 180.939 116.774 178.834 115.962 178.51Z" fill="white" stroke="#263238" stroke-linecap="round" stroke-linejoin="round"/>
<path d="M117.579 175.95C117.579 175.95 111.759 174.163 110.789 175.95C109.819 177.737 115.963 178.379 117.414 178.379C118.866 178.379 118.384 176.24 117.579 175.95Z" fill="white" stroke="#263238" stroke-linecap="round" stroke-linejoin="round"/>
<path d="M43.3438 306.36H326.8" stroke="#263238" stroke-linecap="round" stroke-linejoin="round"/>
<path d="M24.7676 306.36H33.7116" stroke="#263238" stroke-linecap="round" stroke-linejoin="round"/>
</svg>
