<svg width="379" height="379" viewBox="0 0 379 379" fill="none" xmlns="http://www.w3.org/2000/svg">
<g clip-path="url(#clip0_2349_46328)">
<path d="M379 289.859H0V290.049H379V289.859Z" fill="#E0E0E0"/>
<path d="M130.625 294.438H122.682V294.627H130.625V294.438Z" fill="#E0E0E0"/>
<path d="M353.372 299.41H324.613V299.6H353.372V299.41Z" fill="#E0E0E0"/>
<path d="M263.783 294.528H240.543V294.718H263.783V294.528Z" fill="#E0E0E0"/>
<path d="M183.793 298.849H143.346V299.039H183.793V298.849Z" fill="#E0E0E0"/>
<path d="M105.87 297.651H91.9688V297.841H105.87V297.651Z" fill="#E0E0E0"/>
<path d="M320.952 299.41H309.385V299.6H320.952V299.41Z" fill="#E0E0E0"/>
<path d="M87.5489 297.561H49.2168V297.75H87.5489V297.561Z" fill="#E0E0E0"/>
<path d="M179.646 256.052H33.2835C32.1369 256.05 31.038 255.593 30.2279 254.782C29.4179 253.971 28.9629 252.871 28.9629 251.724V45.9802C28.9729 44.8402 29.4322 43.7502 30.2412 42.9469C31.0502 42.1436 32.1434 41.6919 33.2835 41.6899H179.646C180.794 41.6899 181.895 42.1459 182.706 42.9576C183.518 43.7693 183.974 44.8702 183.974 46.0181V251.724C183.974 252.872 183.518 253.973 182.706 254.785C181.895 255.596 180.794 256.052 179.646 256.052ZM33.2835 41.8415C32.1872 41.8435 31.1364 42.2805 30.3619 43.0564C29.5874 43.8323 29.1524 44.8839 29.1524 45.9802V251.724C29.1524 252.82 29.5874 253.872 30.3619 254.648C31.1364 255.424 32.1872 255.861 33.2835 255.863H179.646C180.743 255.861 181.794 255.424 182.57 254.648C183.346 253.873 183.782 252.821 183.784 251.724V45.9802C183.782 44.8832 183.346 43.8317 182.57 43.0559C181.794 42.2802 180.743 41.8435 179.646 41.8415H33.2835Z" fill="#E0E0E0"/>
<path d="M343.608 256.052H197.238C196.091 256.05 194.991 255.594 194.18 254.782C193.369 253.971 192.912 252.871 192.91 251.724V45.9802C192.922 44.8395 193.383 43.7495 194.193 42.9464C195.004 42.1433 196.098 41.6919 197.238 41.6899H343.608C344.747 41.6939 345.838 42.1464 346.646 42.9495C347.453 43.7526 347.911 44.8415 347.921 45.9802V251.724C347.921 252.869 347.467 253.968 346.659 254.779C345.85 255.591 344.753 256.048 343.608 256.052ZM197.238 41.8415C196.141 41.8435 195.09 42.2802 194.314 43.0559C193.538 43.8317 193.102 44.8832 193.1 45.9802V251.724C193.102 252.821 193.538 253.873 194.314 254.648C195.09 255.424 196.141 255.861 197.238 255.863H343.608C344.705 255.861 345.757 255.424 346.532 254.648C347.308 253.873 347.745 252.821 347.747 251.724V45.9802C347.745 44.8832 347.308 43.8317 346.532 43.0559C345.757 42.2802 344.705 41.8435 343.608 41.8415H197.238Z" fill="#E0E0E0"/>
<path d="M146.802 89.5273H56.1758V289.95H146.802V89.5273Z" fill="#E6E6E6"/>
<path d="M146.801 89.5273H60.4727V289.95H146.801V89.5273Z" fill="#F5F5F5"/>
<path d="M142.254 285.41V94.083H65.0213L65.0213 285.41H142.254Z" fill="#F0F0F0"/>
<path d="M142.254 285.402V94.0752H141.071V285.402H142.254Z" fill="#E6E6E6"/>
<path d="M131.938 185.331C134.077 185.331 135.811 183.597 135.811 181.457C135.811 179.318 134.077 177.584 131.938 177.584C129.799 177.584 128.064 179.318 128.064 181.457C128.064 183.597 129.799 185.331 131.938 185.331Z" fill="#E6E6E6"/>
<path d="M133.453 184.528C135.593 184.528 137.327 182.793 137.327 180.654C137.327 178.515 135.593 176.781 133.453 176.781C131.314 176.781 129.58 178.515 129.58 180.654C129.58 182.793 131.314 184.528 133.453 184.528Z" fill="#FAFAFA"/>
<path d="M337.499 68.1743H276.154V183.405H337.499V68.1743Z" fill="#E0E0E0"/>
<path d="M340.122 68.1743H278.777V183.405H340.122V68.1743Z" fill="#F5F5F5"/>
<path d="M335.414 178.335V73.2456H283.476V178.335H335.414Z" fill="#FAFAFA"/>
<path d="M335.422 178.335V73.2456H333.443V178.335H335.422Z" fill="#E0E0E0"/>
<path d="M338.181 147.901H280.725V154.708H338.181V147.901Z" fill="#F5F5F5"/>
<path d="M261.859 68.1743H200.514V183.405H261.859V68.1743Z" fill="#E0E0E0"/>
<path d="M264.474 68.1743H203.129V183.405H264.474V68.1743Z" fill="#F5F5F5"/>
<path d="M259.773 178.327V73.2378H207.835V178.327H259.773Z" fill="#FAFAFA"/>
<path d="M259.773 178.335V73.2456H257.795V178.335H259.773Z" fill="#E0E0E0"/>
<path d="M262.533 147.901H205.076V154.708H262.533V147.901Z" fill="#F5F5F5"/>
<path d="M120.902 80.7116L120.212 81.4014H86.3672V68.1743L120.902 80.7116Z" fill="#E0E0E0"/>
<path d="M87.6785 80.7116H120.902L119.598 68.1743H86.3672L87.6785 80.7116Z" fill="#F5F5F5"/>
<path d="M155.609 188.621H169.936V174.294H155.609V188.621Z" fill="#EBEBEB"/>
<path d="M155.618 174.294H155.133V188.621H155.618V174.294Z" fill="#E0E0E0"/>
<path d="M168.603 185.892L168.087 186.407H157.43V176.583L168.603 185.892Z" fill="#E0E0E0"/>
<path d="M158.4 185.892H168.603L167.64 176.583H157.43L158.4 185.892Z" fill="#FAFAFA"/>
<path d="M176.076 207.396L183.277 200.893L190.471 207.396V290.049H176.076V207.396Z" fill="#F0F0F0"/>
<path d="M201.021 207.396L208.215 200.893L215.416 207.396V290.049H201.021V207.396Z" fill="#F0F0F0"/>
<path d="M225.959 207.396L233.16 200.893L240.353 207.396V290.049H225.959V207.396Z" fill="#F0F0F0"/>
<path d="M250.906 207.396L258.1 200.893L265.293 207.396V290.049H250.906V207.396Z" fill="#F0F0F0"/>
<path d="M275.844 207.396L283.045 200.893L290.238 207.396V290.049H275.844V207.396Z" fill="#F0F0F0"/>
<path d="M300.789 207.396L307.982 200.893L315.176 207.396V290.049H300.789V207.396Z" fill="#F0F0F0"/>
<path d="M325.729 207.396L332.93 200.893L340.123 207.396V290.049H325.729V207.396Z" fill="#F0F0F0"/>
<path d="M183.27 223.087L332.922 223.087V219.418L183.27 219.418V223.087Z" fill="#F0F0F0"/>
<path d="M183.27 266.505H332.922V262.837H183.27V266.505Z" fill="#F0F0F0"/>
<path d="M189.5 324.09C270.668 324.09 336.469 320.249 336.469 315.51C336.469 310.771 270.668 306.929 189.5 306.929C108.331 306.929 42.5312 310.771 42.5312 315.51C42.5312 320.249 108.331 324.09 189.5 324.09Z" fill="#F5F5F5"/>
<path d="M266.771 143.861L267.172 144.202L267.65 144.581C267.968 144.839 268.309 145.097 268.643 145.339C269.325 145.832 270.022 146.317 270.75 146.757C272.192 147.669 273.694 148.485 275.245 149.197C276.804 149.897 278.401 150.509 280.028 151.032C280.854 151.252 281.665 151.524 282.507 151.691L283.765 151.964H283.917C283.917 151.964 283.917 151.964 283.879 151.964C283.803 152.047 283.841 151.964 283.879 151.964C284.033 151.798 284.157 151.605 284.242 151.396C284.535 150.727 284.742 150.024 284.856 149.303C285.126 147.611 285.265 145.901 285.273 144.187C285.273 142.421 285.273 140.624 285.167 138.828C285.061 137.031 284.947 135.205 284.796 133.423L287.449 132.946C288.367 136.593 288.985 140.31 289.298 144.058C289.476 146.01 289.476 147.973 289.298 149.925C289.193 151.029 288.954 152.116 288.586 153.162C288.35 153.813 288.015 154.424 287.593 154.973C287.044 155.699 286.296 156.249 285.44 156.557C284.785 156.791 284.086 156.878 283.394 156.815L283.083 156.777H282.901L281.453 156.542C280.483 156.398 279.535 156.141 278.573 155.936C276.674 155.452 274.814 154.827 273.009 154.064C271.202 153.296 269.454 152.397 267.779 151.373C266.937 150.865 266.126 150.304 265.323 149.72C264.921 149.425 264.527 149.122 264.133 148.803C263.936 148.644 263.746 148.477 263.549 148.303C263.352 148.129 263.178 147.977 262.92 147.734L266.771 143.861Z" fill="#9F5B53"/>
<path d="M259.167 140.677C266.845 139.631 273.046 145.839 273.046 145.839L267.315 155.587C267.315 155.587 258.477 151.865 257.143 148.568C255.763 145.157 255.225 141.208 259.167 140.677Z" fill="#73A36B"/>
<path opacity="0.3" d="M259.167 140.677C266.845 139.631 273.046 145.839 273.046 145.839L267.315 155.587C267.315 155.587 258.477 151.865 257.143 148.568C255.763 145.157 255.225 141.208 259.167 140.677Z" fill="black"/>
<path d="M285.516 134.856L281.309 130.975L287.547 128.542C287.547 128.542 289.525 131.877 287.926 135.212L285.516 134.856Z" fill="#9F5B53"/>
<path d="M280.459 125.411L285.424 124.463L287.546 128.541L281.308 130.975L280.459 125.411Z" fill="#9F5B53"/>
<path d="M231.947 309.696L238.133 310.303L244.576 295.575L238.39 294.968L231.947 309.696Z" fill="#9F5B53"/>
<path d="M192.1 287.926L196.746 292.292L206.775 281.263L202.128 276.905L192.1 287.926Z" fill="#9F5B53"/>
<path d="M198.891 290.2L195.397 283.909C195.339 283.8 195.243 283.716 195.127 283.673C195.011 283.629 194.883 283.63 194.768 283.674L189.394 285.721C189.26 285.776 189.139 285.859 189.04 285.965C188.941 286.07 188.865 286.195 188.818 286.332C188.771 286.469 188.753 286.614 188.766 286.758C188.779 286.903 188.822 287.042 188.893 287.168C190.152 289.344 190.864 290.329 192.395 293.096C193.343 294.794 195.185 298.698 196.489 301.047C197.792 303.397 200.188 302.237 199.854 301.138C198.338 296.227 198.641 293.49 199.096 291.322C199.161 290.936 199.088 290.539 198.891 290.2Z" fill="#263238"/>
<path d="M238.959 308.392H231.379C231.243 308.394 231.111 308.44 231.003 308.523C230.895 308.607 230.817 308.723 230.78 308.855L229.128 314.866C229.087 315.008 229.081 315.158 229.109 315.303C229.137 315.448 229.199 315.584 229.29 315.701C229.381 315.818 229.498 315.911 229.632 315.974C229.766 316.037 229.912 316.068 230.06 316.063C232.736 316.063 234.002 316.063 237.345 316.063H247.555C250.337 316.063 250.913 313.259 249.768 313.031C244.614 311.894 241.643 310.318 240.058 308.824C239.763 308.542 239.368 308.387 238.959 308.392Z" fill="#263238"/>
<path d="M244.569 295.582L241.257 303.17H234.799L238.384 294.976L244.569 295.582Z" fill="#8A4743"/>
<path d="M202.121 276.905L206.775 281.271L201.598 286.948L196.951 282.582L202.121 276.905Z" fill="#8A4743"/>
<path d="M265.739 141.39C265.739 141.39 268.514 142.618 259.19 179.532L233.274 177.258C234.623 166.745 235.199 160.241 232.023 138.161C235.718 137.729 239.44 137.565 243.158 137.668C247.1 137.735 251.031 138.085 254.923 138.714C258.571 139.424 262.181 140.317 265.739 141.39Z" fill="#73A36B"/>
<path opacity="0.3" d="M265.739 141.39C265.739 141.39 268.514 142.618 259.19 179.532L233.274 177.258C234.623 166.745 235.199 160.241 232.023 138.161C235.718 137.729 239.44 137.565 243.158 137.668C247.1 137.735 251.031 138.085 254.923 138.714C258.571 139.424 262.181 140.317 265.739 141.39Z" fill="black"/>
<path d="M243.158 137.698C243.158 137.698 241.688 137.539 239.952 137.539C238.906 139.154 242.082 145.286 247.691 149.894C248.948 147.774 250.543 145.875 252.413 144.27L243.158 137.698Z" fill="#FAFAFA"/>
<path d="M254.923 138.714C255.673 138.761 256.417 138.88 257.144 139.07C258.19 140.685 260.214 146.392 257.144 149.894C255.888 147.774 254.292 145.874 252.422 144.27L254.923 138.714Z" fill="#FAFAFA"/>
<path d="M253.255 148.379C253.255 148.841 253.126 149.22 252.906 149.235C252.686 149.25 252.497 148.879 252.467 148.424C252.436 147.969 252.595 147.575 252.815 147.568C253.035 147.56 253.232 147.916 253.255 148.379Z" fill="#FAFAFA"/>
<path d="M253.171 151.888C253.171 152.343 252.974 152.714 252.755 152.714C252.535 152.714 252.375 152.328 252.383 151.865C252.391 151.403 252.58 151.039 252.8 151.039C253.02 151.039 253.209 151.426 253.171 151.888Z" fill="#FAFAFA"/>
<path d="M245.471 124.547C245.888 128.398 246.025 135.401 243.197 137.698C245.972 140.279 249.07 142.488 252.415 144.27C256.917 141.162 254.924 138.714 254.924 138.714C250.792 137.342 251.171 134.219 252.157 131.339L245.471 124.547Z" fill="#9F5B53"/>
<path d="M248.199 127.344L252.156 131.361C251.917 132.029 251.734 132.717 251.61 133.415C250.018 133.044 247.714 131.391 247.691 129.686C247.718 128.881 247.89 128.087 248.199 127.344Z" fill="#8A4743"/>
<path d="M253.035 113.139C253.035 113.139 257.234 117.262 258.159 119.271C260.706 120.219 260.016 113.51 258.083 109.629C254.688 112.654 253.035 113.139 253.035 113.139Z" fill="#263238"/>
<path d="M242.082 118.529C243.689 124.684 244.235 127.321 248.01 129.899C253.679 133.772 260.896 130.452 261.146 123.948C261.388 118.089 258.72 109.016 252.141 107.742C250.691 107.452 249.192 107.537 247.784 107.989C246.377 108.442 245.109 109.247 244.101 110.328C243.093 111.409 242.378 112.73 242.025 114.166C241.671 115.601 241.691 117.103 242.082 118.529Z" fill="#9F5B53"/>
<path d="M256.037 110.668C258.857 111.085 261.669 108.447 257.106 105.62C258.569 105.468 260.138 100.314 254.832 100.594C254.574 98.1458 249.321 95.9628 246.494 99.8361C243.227 97.6834 238.588 99.8816 239.626 103.224C235.874 103.459 233.919 108.583 237.019 109.417C233.29 111.691 232.638 115.368 236.261 116.035C236.761 120.287 245.092 118.384 244.447 114.428C245.963 115.239 250.723 113.495 249.753 111.396C251.292 113.374 256.037 112.472 256.037 110.668Z" fill="#263238"/>
<path d="M238.77 116.08C238.77 116.08 241.862 121.083 242.271 123.258C244.545 124.774 245.463 118.111 244.545 113.882C240.475 115.974 238.77 116.08 238.77 116.08Z" fill="#263238"/>
<path d="M241.575 124.085C242.15 125.172 243.131 125.989 244.304 126.359C245.866 126.821 246.677 125.434 246.275 123.948C245.903 122.607 244.653 120.749 243.076 120.916C242.731 120.963 242.403 121.095 242.122 121.301C241.841 121.507 241.616 121.779 241.467 122.094C241.318 122.408 241.25 122.755 241.269 123.103C241.288 123.451 241.393 123.788 241.575 124.085Z" fill="#9F5B53"/>
<path d="M259.191 179.532C259.191 179.532 267.961 218.319 262.101 245.66C258.182 263.973 244.046 300.994 244.046 300.994L232.994 300.706C232.994 300.706 243.697 261.881 245.88 246.615C249.67 220.495 240.18 177.91 240.18 177.91L259.191 179.532Z" fill="#73A36B"/>
<path opacity="0.6" d="M259.191 179.532C259.191 179.532 267.961 218.319 262.101 245.66C258.182 263.973 244.046 300.994 244.046 300.994L232.994 300.706C232.994 300.706 243.697 261.881 245.88 246.615C249.67 220.495 240.18 177.91 240.18 177.91L259.191 179.532Z" fill="#FAFAFA"/>
<path d="M249.079 187.362L243.553 196.079C245.216 206.416 246.272 216.841 246.714 227.301C254.483 213.384 250.807 194.73 249.079 187.362Z" fill="#73A36B"/>
<path opacity="0.4" d="M249.079 187.362L243.553 196.079C245.216 206.416 246.272 216.841 246.714 227.301C254.483 213.384 250.807 194.73 249.079 187.362Z" fill="#FAFAFA"/>
<path d="M245.606 301.54L231.947 301.199L232.743 297L247.645 297.704L245.606 301.54Z" fill="#73A36B"/>
<path opacity="0.3" d="M245.606 301.54L231.947 301.199L232.743 297L247.645 297.704L245.606 301.54Z" fill="black"/>
<path d="M253.521 179.116C253.521 179.116 248.382 220.252 237.232 242.704C228.227 260.843 204.191 286.668 204.191 286.668L198.051 280.339C198.051 280.339 214.28 252.293 220.973 240.226C237.383 210.664 224.005 188.136 233.275 177.312L253.521 179.116Z" fill="#73A36B"/>
<path opacity="0.6" d="M253.521 179.116C253.521 179.116 248.382 220.252 237.232 242.704C228.227 260.843 204.191 286.668 204.191 286.668L198.051 280.339C198.051 280.339 214.28 252.293 220.973 240.226C237.383 210.664 224.005 188.136 233.275 177.312L253.521 179.116Z" fill="#FAFAFA"/>
<path d="M204.812 287.51L196.883 279.786L199.513 276.2L208.154 285.137L204.812 287.51Z" fill="#73A36B"/>
<path opacity="0.3" d="M204.812 287.51L196.883 279.786L199.513 276.2L208.154 285.137L204.812 287.51Z" fill="black"/>
<path d="M233.018 175.735L231.646 177.948C231.539 178.122 231.744 178.327 232.04 178.35L259.214 180.699C259.449 180.699 259.654 180.624 259.684 180.48L260.116 178.206C260.116 178.046 259.957 177.887 259.699 177.865L233.457 175.591C233.378 175.575 233.296 175.581 233.219 175.606C233.142 175.631 233.073 175.675 233.018 175.735Z" fill="#263238"/>
<path d="M236.291 178.971L235.586 178.911C235.442 178.911 235.344 178.82 235.359 178.729L235.95 175.742C235.95 175.659 236.102 175.598 236.238 175.606L236.943 175.666C237.08 175.666 237.178 175.765 237.163 175.848L236.572 178.835C236.557 178.926 236.428 178.986 236.291 178.971Z" fill="#73A36B"/>
<path opacity="0.6" d="M236.291 178.971L235.586 178.911C235.442 178.911 235.344 178.82 235.359 178.729L235.95 175.742C235.95 175.659 236.102 175.598 236.238 175.606L236.943 175.666C237.08 175.666 237.178 175.765 237.163 175.848L236.572 178.835C236.557 178.926 236.428 178.986 236.291 178.971Z" fill="#FAFAFA"/>
<path d="M257.219 180.783L256.514 180.723C256.378 180.723 256.279 180.632 256.295 180.541L256.886 177.554C256.886 177.471 257.03 177.41 257.166 177.418L257.871 177.478C258.015 177.478 258.114 177.577 258.099 177.66L257.507 180.647C257.481 180.698 257.438 180.738 257.386 180.763C257.334 180.788 257.276 180.795 257.219 180.783Z" fill="#73A36B"/>
<path opacity="0.6" d="M257.219 180.783L256.514 180.723C256.378 180.723 256.279 180.632 256.295 180.541L256.886 177.554C256.886 177.471 257.03 177.41 257.166 177.418L257.871 177.478C258.015 177.478 258.114 177.577 258.099 177.66L257.507 180.647C257.481 180.698 257.438 180.738 257.386 180.763C257.334 180.788 257.276 180.795 257.219 180.783Z" fill="#FAFAFA"/>
<path d="M246.752 179.881L246.055 179.82C245.911 179.82 245.813 179.722 245.828 179.638L246.419 176.652C246.419 176.561 246.563 176.5 246.707 176.516L247.404 176.576C247.548 176.576 247.647 176.667 247.632 176.758L247.041 179.737C247.025 179.828 246.896 179.889 246.752 179.881Z" fill="#73A36B"/>
<path opacity="0.6" d="M246.752 179.881L246.055 179.82C245.911 179.82 245.813 179.722 245.828 179.638L246.419 176.652C246.419 176.561 246.563 176.5 246.707 176.516L247.404 176.576C247.548 176.576 247.647 176.667 247.632 176.758L247.041 179.737C247.025 179.828 246.896 179.889 246.752 179.881Z" fill="#FAFAFA"/>
<path d="M251.869 118.415C251.967 118.923 252.316 119.279 252.627 119.211C252.937 119.142 253.142 118.688 253.044 118.18C252.945 117.672 252.596 117.316 252.286 117.376C251.975 117.437 251.77 117.907 251.869 118.415Z" fill="#263238"/>
<path d="M257.598 117.285C257.696 117.793 258.045 118.149 258.356 118.089C258.667 118.028 258.871 117.558 258.773 117.05C258.674 116.542 258.326 116.186 258.015 116.292C257.704 116.398 257.492 116.777 257.598 117.285Z" fill="#263238"/>
<path d="M257.871 116.308L259.023 115.716C259.023 115.716 258.584 116.793 257.871 116.308Z" fill="#263238"/>
<path d="M256.25 118.46C256.932 119.524 257.755 120.491 258.698 121.333C258.476 121.569 258.205 121.754 257.904 121.874C257.603 121.994 257.279 122.048 256.955 122.03L256.25 118.46Z" fill="#892B29"/>
<path d="M254.612 124.448C253.545 124.462 252.512 124.069 251.724 123.349C251.702 123.324 251.689 123.292 251.689 123.258C251.689 123.225 251.702 123.192 251.724 123.167C251.748 123.143 251.781 123.13 251.815 123.13C251.849 123.13 251.882 123.143 251.906 123.167C252.392 123.593 252.971 123.899 253.596 124.061C254.221 124.223 254.875 124.236 255.507 124.1C255.54 124.093 255.574 124.1 255.603 124.118C255.631 124.136 255.651 124.165 255.658 124.198C255.662 124.214 255.662 124.231 255.658 124.247C255.655 124.263 255.649 124.278 255.64 124.291C255.63 124.305 255.619 124.316 255.605 124.325C255.591 124.334 255.576 124.34 255.56 124.342C255.248 124.41 254.931 124.445 254.612 124.448Z" fill="#263238"/>
<path d="M249.049 115.216C249.007 115.226 248.963 115.226 248.92 115.216C248.864 115.18 248.823 115.124 248.808 115.058C248.792 114.993 248.803 114.925 248.837 114.867C249.069 114.456 249.397 114.108 249.793 113.85C250.189 113.593 250.641 113.435 251.111 113.389C251.177 113.389 251.24 113.414 251.288 113.459C251.336 113.504 251.365 113.566 251.368 113.632C251.369 113.665 251.364 113.697 251.352 113.728C251.341 113.759 251.323 113.787 251.301 113.811C251.278 113.835 251.251 113.854 251.221 113.868C251.191 113.881 251.159 113.888 251.126 113.889C250.739 113.934 250.367 114.069 250.042 114.283C249.717 114.498 249.447 114.786 249.254 115.125C249.229 115.155 249.198 115.18 249.162 115.195C249.127 115.211 249.088 115.218 249.049 115.216Z" fill="#263238"/>
<path d="M259.812 114.322C259.773 114.332 259.731 114.332 259.691 114.322C259.352 114.116 258.968 113.995 258.572 113.97C258.176 113.945 257.78 114.016 257.417 114.178C257.358 114.207 257.289 114.213 257.225 114.193C257.162 114.173 257.108 114.13 257.076 114.071C257.046 114.012 257.041 113.943 257.06 113.879C257.08 113.816 257.124 113.762 257.182 113.73C257.613 113.535 258.085 113.447 258.558 113.474C259.03 113.5 259.489 113.64 259.896 113.882C259.925 113.898 259.95 113.919 259.971 113.945C259.992 113.971 260.007 114 260.016 114.032C260.025 114.064 260.028 114.097 260.024 114.13C260.021 114.162 260.01 114.194 259.994 114.223C259.973 114.252 259.946 114.276 259.914 114.293C259.883 114.31 259.848 114.32 259.812 114.322Z" fill="#263238"/>
<path d="M233.995 147.469C232.942 149.571 231.772 151.613 230.493 153.586C229.22 155.542 227.87 157.437 226.423 159.278C224.957 161.117 223.382 162.866 221.708 164.516C220.851 165.335 219.995 166.154 219.07 166.912L218.388 167.495C218.067 167.758 217.728 167.996 217.372 168.208C216.498 168.723 215.498 168.985 214.484 168.966C213.452 168.923 212.457 168.572 211.626 167.958C210.984 167.491 210.416 166.928 209.944 166.29C209.17 165.231 208.526 164.084 208.026 162.871C207.122 160.681 206.409 158.416 205.896 156.102C204.887 151.627 204.221 147.081 203.902 142.504L206.578 142.17C207.01 144.323 207.473 146.521 208.011 148.674C208.549 150.827 209.095 152.972 209.754 155.049C210.368 157.092 211.128 159.088 212.028 161.022C212.438 161.874 212.947 162.676 213.544 163.41C213.762 163.666 214.018 163.888 214.302 164.069C214.514 164.19 214.583 164.168 214.59 164.152C214.699 164.12 214.802 164.068 214.893 164.001C214.992 163.933 215.113 163.834 215.242 163.728L215.818 163.182C216.576 162.477 217.334 161.704 218.092 160.908C219.547 159.339 220.897 157.656 222.216 155.951C223.535 154.245 224.74 152.426 225.892 150.584C226.476 149.675 227.037 148.742 227.59 147.802C228.143 146.862 228.666 145.892 229.106 145.013L233.995 147.469Z" fill="#9F5B53"/>
<path d="M207.768 143.103L207.093 137.425L201.469 141.049C201.469 141.049 203.311 144.081 205.858 144.899L207.768 143.103Z" fill="#9F5B53"/>
<path d="M205.008 135.121L201.332 138.593L201.468 141.049L207.093 137.425L205.008 135.121Z" fill="#9F5B53"/>
<path d="M232.024 138.191C228.848 138.76 224.398 147.871 224.398 147.871L232.41 155.11C232.41 155.11 238.778 148.166 238.437 144.028C238.149 140.511 236.072 137.479 232.024 138.191Z" fill="#73A36B"/>
<path opacity="0.3" d="M232.024 138.191C228.848 138.76 224.398 147.871 224.398 147.871L232.41 155.11C232.41 155.11 238.778 148.166 238.437 144.028C238.149 140.511 236.072 137.479 232.024 138.191Z" fill="black"/>
<path d="M200.112 293.581C200.029 293.581 199.947 293.566 199.87 293.535C199.112 293.285 198.612 291.875 198.354 291.057C198.349 291.033 198.351 291.009 198.359 290.986C198.367 290.963 198.381 290.943 198.399 290.928C198.42 290.915 198.443 290.908 198.468 290.908C198.492 290.908 198.515 290.915 198.536 290.928C198.771 291.049 200.81 292.133 200.863 292.936C200.871 293.023 200.855 293.11 200.818 293.189C200.781 293.268 200.723 293.335 200.651 293.384C200.497 293.506 200.308 293.575 200.112 293.581ZM198.71 291.307C199.059 292.429 199.514 293.179 199.946 293.323C200.045 293.351 200.149 293.354 200.25 293.331C200.351 293.309 200.444 293.262 200.522 293.194C200.56 293.17 200.591 293.137 200.611 293.097C200.631 293.056 200.639 293.011 200.635 292.967C200.598 292.451 199.408 291.678 198.71 291.284V291.307Z" fill="#73A36B"/>
<path d="M200.431 291.603C199.74 291.6 199.058 291.439 198.438 291.133C198.419 291.122 198.404 291.106 198.393 291.088C198.382 291.069 198.377 291.048 198.377 291.027C198.377 291.004 198.382 290.982 198.393 290.962C198.404 290.942 198.419 290.925 198.438 290.913C198.506 290.875 200.113 289.996 200.977 290.299C201.086 290.334 201.185 290.393 201.268 290.472C201.35 290.55 201.414 290.647 201.454 290.754C201.507 290.855 201.525 290.971 201.504 291.084C201.483 291.196 201.426 291.299 201.341 291.375C201.069 291.545 200.751 291.625 200.431 291.603ZM198.779 291.027C199.468 291.322 200.803 291.504 201.174 291.178C201.235 291.125 201.303 291.042 201.219 290.845C201.192 290.772 201.149 290.707 201.092 290.655C201.036 290.602 200.968 290.563 200.894 290.541C200.31 290.314 199.233 290.799 198.779 291.027Z" fill="#73A36B"/>
<path d="M242.333 309.62C241.633 309.604 240.937 309.515 240.256 309.355C240.23 309.35 240.207 309.337 240.189 309.318C240.171 309.299 240.16 309.275 240.157 309.249C240.154 309.223 240.159 309.197 240.171 309.174C240.183 309.151 240.202 309.132 240.225 309.12C240.544 308.968 243.303 307.703 244.015 308.165C244.078 308.209 244.127 308.268 244.159 308.338C244.191 308.407 244.204 308.483 244.197 308.559C244.191 308.699 244.154 308.835 244.089 308.959C244.023 309.082 243.931 309.189 243.818 309.272C243.371 309.539 242.852 309.661 242.333 309.62ZM240.688 309.188C241.506 309.34 243.022 309.537 243.644 309.067C243.728 309.008 243.796 308.93 243.844 308.839C243.891 308.748 243.916 308.647 243.917 308.544C243.917 308.438 243.917 308.4 243.849 308.377C243.462 308.112 241.802 308.68 240.688 309.188Z" fill="#73A36B"/>
<path d="M240.285 309.363C240.258 309.37 240.229 309.37 240.202 309.363C240.184 309.347 240.17 309.327 240.162 309.304C240.154 309.282 240.152 309.257 240.157 309.234C240.157 309.12 240.831 306.391 242.309 306.573C242.681 306.619 242.787 306.808 242.802 306.952C242.901 307.65 241.157 309.044 240.331 309.378L240.285 309.363ZM242.173 306.785C241.218 306.785 240.657 308.37 240.475 309.006C241.369 308.536 242.613 307.399 242.552 306.96C242.552 306.96 242.552 306.823 242.279 306.793L242.173 306.785Z" fill="#73A36B"/>
<path d="M252.148 117.437L253.293 116.846C253.293 116.846 252.853 117.922 252.148 117.437Z" fill="#263238"/>
<path d="M93.6358 119.006C100.356 112.267 108.341 106.922 117.134 103.28C125.926 99.6375 135.352 97.769 144.869 97.7818H155.125C155.125 97.7818 203.508 110.448 203.508 162.28C203.508 212.945 170.012 257.788 155.132 272.69H144.884L93.6358 221.442C80.0596 207.854 72.4336 189.432 72.4336 170.224C72.4336 151.016 80.0596 132.594 93.6358 119.006ZM144.877 203.902C151.53 203.902 158.035 201.929 163.567 198.232C169.099 194.535 173.411 189.281 175.957 183.133C178.503 176.986 179.168 170.222 177.87 163.696C176.571 157.17 173.366 151.176 168.661 146.472C163.956 141.768 157.961 138.564 151.435 137.267C144.909 135.97 138.145 136.637 131.998 139.185C125.851 141.732 120.598 146.045 116.902 151.578C113.207 157.111 111.235 163.616 111.237 170.269C111.255 179.179 114.807 187.718 121.114 194.012C127.42 200.306 135.966 203.841 144.877 203.841V203.902Z" fill="#263238"/>
<path d="M207.692 117.634C204.692 114.637 201.446 111.896 197.99 109.44L198.422 108.818C201.917 111.3 205.198 114.072 208.23 117.103L207.692 117.634ZM193.457 106.476C191.675 105.4 189.826 104.384 187.969 103.444L188.302 102.762C190.182 103.694 192.047 104.717 193.851 105.794L193.457 106.476Z" fill="#73A36B"/>
<path opacity="0.2" d="M207.692 117.634C204.692 114.637 201.446 111.896 197.99 109.44L198.422 108.818C201.917 111.3 205.198 114.072 208.23 117.103L207.692 117.634ZM193.457 106.476C191.675 105.4 189.826 104.384 187.969 103.444L188.302 102.762C190.182 103.694 192.047 104.717 193.851 105.794L193.457 106.476Z" fill="black"/>
<path d="M103.885 119.006C117.555 105.844 135.844 98.5703 154.821 98.7488C173.797 98.9273 191.946 106.543 205.367 119.96C218.787 133.377 226.409 151.524 226.593 170.5C226.777 189.476 219.509 207.767 206.351 221.442L155.133 272.668L103.885 221.419C90.3117 207.834 82.6875 189.416 82.6875 170.212C82.6875 151.009 90.3117 132.591 103.885 119.006ZM155.125 203.902C161.779 203.902 168.283 201.929 173.816 198.232C179.348 194.535 183.66 189.281 186.205 183.133C188.751 176.986 189.417 170.222 188.118 163.696C186.82 157.17 183.615 151.176 178.91 146.472C174.204 141.768 168.21 138.564 161.684 137.267C155.158 135.97 148.393 136.637 142.247 139.185C136.1 141.732 130.847 146.045 127.151 151.578C123.456 157.111 121.484 163.616 121.485 170.269C121.503 179.179 125.056 187.718 131.362 194.012C137.669 200.306 146.215 203.841 155.125 203.841V203.902Z" fill="#73A36B"/>
<path opacity="0.2" d="M103.885 119.006C117.555 105.844 135.844 98.5703 154.821 98.7488C173.797 98.9273 191.946 106.543 205.367 119.96C218.787 133.377 226.409 151.524 226.593 170.5C226.777 189.476 219.509 207.767 206.351 221.442L155.133 272.668L103.885 221.419C90.3117 207.834 82.6875 189.416 82.6875 170.212C82.6875 151.009 90.3117 132.591 103.885 119.006ZM155.125 203.902C161.779 203.902 168.283 201.929 173.816 198.232C179.348 194.535 183.66 189.281 186.205 183.133C188.751 176.986 189.417 170.222 188.118 163.696C186.82 157.17 183.615 151.176 178.91 146.472C174.204 141.768 168.21 138.564 161.684 137.267C155.158 135.97 148.393 136.637 142.247 139.185C136.1 141.732 130.847 146.045 127.151 151.578C123.456 157.111 121.484 163.616 121.485 170.269C121.503 179.179 125.056 187.718 131.362 194.012C137.669 200.306 146.215 203.841 155.125 203.841V203.902Z" fill="black"/>
<g opacity="0.4" style="mix-blend-mode:color-dodge">
<path d="M155.132 268.567C155.107 268.567 155.081 268.561 155.058 268.551C155.034 268.54 155.013 268.525 154.996 268.506L105.893 219.411C96.1619 209.676 89.536 197.274 86.8528 183.774C84.1697 170.274 85.5496 156.281 90.8183 143.565C96.087 130.849 105.008 119.981 116.453 112.335C127.898 104.688 141.353 100.607 155.117 100.607C168.881 100.607 182.337 104.688 193.782 112.335C205.227 119.981 214.147 130.849 219.416 143.565C224.685 156.281 226.065 170.274 223.381 183.774C220.698 197.274 214.072 209.676 204.342 219.411L155.261 268.484C155.247 268.506 155.229 268.526 155.206 268.54C155.184 268.555 155.159 268.564 155.132 268.567ZM155.132 100.981C141.443 100.983 128.062 105.044 116.681 112.651C105.299 120.258 96.4291 131.068 91.1913 143.716C85.9535 156.363 84.5833 170.28 87.2541 183.706C89.9248 197.132 96.5166 209.465 106.196 219.145L155.163 268.105L204.107 219.168C213.785 209.483 220.374 197.145 223.042 183.715C225.71 170.285 224.336 156.366 219.095 143.717C213.853 131.067 204.979 120.256 193.594 112.649C182.209 105.043 168.825 100.982 155.132 100.981ZM155.132 207.101C147.841 207.101 140.714 204.939 134.652 200.888C128.59 196.837 123.866 191.08 121.076 184.344C118.286 177.608 117.557 170.196 118.98 163.045C120.403 155.894 123.914 149.326 129.07 144.171C134.226 139.017 140.795 135.506 147.946 134.085C155.097 132.664 162.508 133.395 169.244 136.186C175.979 138.977 181.736 143.703 185.785 149.765C189.835 155.828 191.995 162.956 191.994 170.247C191.972 180.013 188.079 189.373 181.168 196.274C174.257 203.175 164.891 207.055 155.125 207.063L155.132 207.101ZM155.132 133.764C147.917 133.764 140.863 135.904 134.864 139.913C128.864 143.921 124.188 149.619 121.427 156.285C118.666 162.952 117.943 170.287 119.351 177.364C120.758 184.441 124.233 190.942 129.335 196.044C134.437 201.146 140.938 204.621 148.015 206.028C155.092 207.436 162.427 206.713 169.094 203.952C175.76 201.191 181.458 196.515 185.466 190.515C189.475 184.516 191.615 177.462 191.615 170.247C191.615 160.566 187.771 151.282 180.929 144.434C174.087 137.586 164.805 133.734 155.125 133.726L155.132 133.764Z" fill="#FAFAFA"/>
</g>
</g>
<defs>
<clipPath id="clip0_2349_46328">
<rect width="379" height="379" fill="white"/>
</clipPath>
</defs>
</svg>
